PathFileType	4	(X/Y/Z)	D:\TRACE\v60_Jaco2_6-2-23\JustArmDRS_Motion2_4-platform.trc
DataRate	CameraRate	NumFrames	NumMarkers	Units	OrigDataRate	OrigDataStartFrame	OrigNumFrames
100.00	100.00	      24	5	mm	100.00	5177	      6902
Frame#	Time	Left_Front			Right_Front			Left_Aft			Right_Aft			Post			
		X1	Y1	Z1	X2	Y2	Z2	X3	Y3	Z3	X4	Y4	Z4	X5	Y5	Z5	

5177	51.760	-797.21588	48.10244	-628.32043	772.75049	48.97406	-633.68536	-705.37396	-19.47305	504.62561	736.98724	-21.66435	514.46063	-10.15008	1363.98962	-875.56775	
5178	51.770	-798.43640	46.95047	-628.63361	771.72571	47.69086	-634.10388	-706.38702	-18.84228	504.59564	735.82996	-20.77932	514.11243	-11.20848	1362.13965	-878.04749	
5179	51.780	-799.56140	46.03402	-628.88684	770.60333	46.70965	-634.25946	-707.58368	-17.78646	504.11880	734.75397	-19.92957	513.94757	-12.36399	1360.37646	-880.29877	
5180	51.790	-800.59338	44.58567	-629.38818	769.33655	45.43934	-634.63403	-708.69513	-17.21857	504.21442	733.33057	-18.91139	513.88257	-13.92404	1358.88928	-882.03595	
5181	51.800	-801.77283	43.32573	-629.82751	768.21191	44.31694	-635.09399	-709.81610	-16.23431	503.97345	732.52594	-18.09762	513.72882	-14.92687	1357.32056	-884.18829	
5182	51.810	-802.95020	42.40281	-629.87634	767.17279	43.03483	-635.38898	-710.87317	-15.32862	503.84885	731.26129	-17.35838	513.42218	-16.16660	1355.78516	-886.15027	
5183	51.820	-804.09772	41.22511	-630.39313	765.85553	41.85322	-635.92859	-712.09937	-14.49148	503.52850	730.14410	-16.54929	513.08820	-17.27366	1353.92786	-888.41187	
5184	51.830	-805.17603	39.84769	-630.76666	764.88324	40.58255	-636.11584	-713.15643	-13.65630	503.32626	728.88586	-15.62588	512.81506	-18.85142	1352.38391	-890.99146	
5185	51.840	-806.38428	38.64482	-631.00494	763.66150	39.36265	-636.37439	-714.31299	-12.76046	502.86472	727.98035	-14.61165	512.76544	-19.66682	1350.46069	-894.11890	
5186	51.850	-807.43854	37.19722	-631.39203	762.38672	38.05372	-636.92853	-715.54803	-11.84779	502.65561	726.87885	-13.66894	512.39240	-20.83480	1348.63672	-898.18506	
5187	51.860	-808.55359	35.72749	-631.22675	761.47797	36.81820	-637.15363	-716.65948	-10.97984	502.34314	725.57617	-12.72633	512.25659	-21.80573	1346.86450	-901.22302	
5188	51.870	-809.76978	34.63653	-632.17419	760.19922	35.43217	-637.35645	-717.91901	-10.01714	501.94336	724.71167	-11.73810	511.81708	-22.70097	1344.83594	-904.83112	
5189	51.880	-810.75854	33.35575	-632.66187	759.07202	34.11198	-637.90967	-718.85248	-8.94825	501.73825	723.37201	-10.61889	511.51877	-24.36015	1342.94019	-908.90668	
5190	51.890	-812.04877	31.71691	-632.87311	758.05988	32.71389	-638.22534	-720.06372	-8.14024	501.43729	722.43549	-9.61713	511.32184	-25.34696	1341.11389	-911.78815	
5191	51.900	-812.97485	30.55222	-633.07739	756.81287	31.46456	-638.54199	-721.30914	-7.02787	501.05646	720.73334	-8.67952	511.19135	-26.40701	1339.21558	-914.92114	
5192	51.910	-814.27942	29.38858	-633.73419	755.80750	30.00538	-639.16180	-722.22406	-6.26152	500.93854	719.85266	-7.70423	510.76617	-27.47443	1337.21179	-917.93250	
5193	51.920	-815.29614	27.65306	-633.95740	754.63995	28.52089	-639.24933	-723.47241	-5.12047	500.61075	718.69507	-6.77692	510.42596	-28.87390	1335.51123	-920.76117	
5194	51.930	-816.28040	26.32504	-634.34351	753.40363	27.32502	-639.62421	-724.53137	-4.39542	500.48706	717.81812	-5.76767	510.13922	-29.90684	1333.46936	-923.50543	
5195	51.940	-817.79736	25.37238	-634.83148	752.40936	25.88123	-640.27777	-725.85040	-3.29800	500.10785	716.65137	-4.70854	509.84955	-31.23801	1331.50659	-926.11584	
5196	51.950	-818.83154	23.59108	-635.15594	751.18036	24.64478	-640.64978	-726.87573	-2.37842	499.95541	715.34491	-3.63800	509.74014	-32.28005	1329.62207	-928.45496	
5197	51.960	-819.88666	22.45121	-635.32617	750.12347	23.26424	-640.69806	-727.91882	-1.44775	499.47824	714.39148	-2.64192	509.19955	-33.38169	1327.81775	-931.10541	
5198	51.970	-820.79340	21.04723	-635.92755	748.99420	21.91063	-641.10022	-729.12817	-0.44300	499.26593	713.20251	-1.73866	508.90662	-34.20899	1325.49683	-933.97339	
5199	51.980	-822.17328	19.52097	-636.01172	747.87830	20.52836	-641.60132	-730.16321	0.65498	498.77399	712.21301	-0.84027	508.57611	-35.26956	1323.57971	-936.69653	
5200	51.990	-823.17401	18.12309	-636.33948	746.93292	19.16835	-641.72522	-731.29077	1.52741	498.47354	711.13232	0.39468	508.32968	-36.80996	1321.50195	-940.29126	
